<svg width="119" height="132" viewBox="0 0 119 132" fill="none" xmlns="http://www.w3.org/2000/svg">
<g style="mix-blend-mode:multiply" filter="url(#filter0_f_2829_201385)">
<ellipse cx="59.512" cy="85.5992" rx="33.47" ry="20.4" fill="#9A638D"/>
</g>
<g clip-path="url(#clip0_2829_201385)">
<mask id="mask0_2829_201385" style="mask-type:alpha" maskUnits="userSpaceOnUse" x="9" y="0" width="100" height="100">
<circle cx="59" cy="50" r="50" fill="#FF6C9B"/>
</mask>
<g mask="url(#mask0_2829_201385)">
<circle cx="59" cy="50" r="50" fill="#FF6C9B"/>
<g filter="url(#filter1_i_2829_201385)">
<circle cx="59" cy="50" r="50" transform="rotate(-180 59 50)" fill="url(#paint0_radial_2829_201385)"/>
</g>
<g opacity="0.8" filter="url(#filter2_f_2829_201385)">
<ellipse cx="28.5032" cy="56.2378" rx="37.2797" ry="23.238" transform="rotate(84.4195 28.5032 56.2378)" fill="#FF33B5"/>
</g>
<g opacity="0.8" filter="url(#filter3_f_2829_201385)">
<ellipse cx="86.209" cy="80.5022" rx="37.2797" ry="23.238" transform="rotate(144.287 86.209 80.5022)" fill="#FF3C7E"/>
</g>
<g opacity="0.6" filter="url(#filter4_f_2829_201385)">
<path d="M74.9376 63.1233C73.2418 63.1233 72.1877 61.3742 72.7189 59.7638C74.1991 55.2769 75 50.4812 75 45.4984C75 30.5844 67.8245 17.3463 56.7374 9.04816C55.7894 8.33858 55.8751 6.86928 56.9704 6.4189C73.3154 -0.302597 92.802 9.4139 100.495 28.1213C103.153 34.5855 104.056 41.2774 103.424 47.5451C103.318 48.5953 102.903 49.5911 102.229 50.4028C95.7763 58.1656 85.9474 63.1233 74.9376 63.1233Z" fill="#FF798D"/>
</g>
<g opacity="0.5" filter="url(#filter5_f_2829_201385)">
<path d="M87.9668 98.5789C74.8139 108.765 25.8151 104.768 11.6856 86.5226C-2.44393 68.2774 1.85322 27.3066 15.0061 17.1206C22.5705 11.2626 43.9638 5.91715 50.2567 17.1206C46.2071 33.007 30.1245 50.6016 44.254 68.8468C58.3835 87.092 101.12 88.393 87.9668 98.5789Z" fill="#C829FF"/>
</g>
<g opacity="0.5" filter="url(#filter6_f_2829_201385)">
<path d="M102.484 55.8242C95.0441 71.2523 78.3728 82 58.9998 82C39.6272 82 22.9562 71.2528 15.5164 55.8253C16.1537 76.7982 35.378 93.625 59 93.625C82.6224 93.625 101.847 76.7976 102.484 55.8242Z" fill="#FF92DC"/>
</g>
</g>
<g opacity="0.7" filter="url(#filter7_f_2829_201385)">
<ellipse cx="58.5605" cy="25.8301" rx="34.1309" ry="23.1934" transform="rotate(-180 58.5605 25.8301)" fill="url(#paint1_radial_2829_201385)"/>
</g>
<g opacity="0.8" filter="url(#filter8_f_2829_201385)">
<path d="M95.5135 78.4263C101.765 67.8405 103.667 57.1843 103.668 56.4965C105.664 49.964 110.312 54.7125 100.968 74.5121C94.3497 88.5369 76.0657 96.6173 76.6916 96.3264C84.4419 92.7237 93.0628 82.5763 95.5135 78.4263Z" fill="url(#paint2_radial_2829_201385)"/>
</g>
<g opacity="0.6" filter="url(#filter9_f_2829_201385)">
<path d="M24.487 79.7972C18.2409 69.2009 15.6458 56.6779 15.6458 55.9899C13.6552 49.4532 7.6423 57.5714 18.1511 75.8063C26.8551 90.9094 43.2339 96.1553 42.6075 95.8635C34.8516 92.2503 26.9358 83.9513 24.487 79.7972Z" fill="url(#paint3_linear_2829_201385)"/>
</g>
</g>
<path d="M36.7523 38.2554C30.2277 39.5707 26.0618 46.2093 27.4475 53.0833C27.6696 54.1849 28.9357 54.6123 29.9335 54.0952C32.4246 52.8042 35.2472 51.807 38.2984 51.2101C41.7572 50.5336 45.1375 50.4437 48.2424 50.8543C49.8458 51.0663 51.3952 49.9053 51.0756 48.3198C49.6899 41.4458 43.2769 36.9401 36.7523 38.2554Z" fill="url(#paint4_linear_2829_201385)"/>
<path d="M93.3507 41.146C91.8868 31.1659 83.2046 24.1753 73.9588 25.5314C64.7133 26.8878 58.4047 36.0773 59.8686 46.0572C60.0939 47.5936 61.8677 48.2105 63.2286 47.4627C67.4086 45.1657 72.6378 43.4748 78.4177 42.7623C82.9883 42.199 87.3736 42.3126 91.2896 42.9847C92.4383 43.1819 93.5199 42.2992 93.3507 41.146Z" fill="url(#paint5_linear_2829_201385)"/>
<defs>
<filter id="filter0_f_2829_201385" x="0.855261" y="40.0125" width="117.313" height="91.1742" filterUnits="userSpaceOnUse" color-interpolation-filters="sRGB">
<feFlood flood-opacity="0" result="BackgroundImageFix"/>
<feBlend mode="normal" in="SourceGraphic" in2="BackgroundImageFix" result="shape"/>
<feGaussianBlur stdDeviation="12.5934" result="effect1_foregroundBlur_2829_201385"/>
</filter>
<filter id="filter1_i_2829_201385" x="9" y="0" width="100" height="100" filterUnits="userSpaceOnUse" color-interpolation-filters="sRGB">
<feFlood flood-opacity="0" result="BackgroundImageFix"/>
<feBlend mode="normal" in="SourceGraphic" in2="BackgroundImageFix" result="shape"/>
<feColorMatrix in="SourceAlpha" type="matrix" values="0 0 0 0 0 0 0 0 0 0 0 0 0 0 0 0 0 0 127 0" result="hardAlpha"/>
<feOffset/>
<feGaussianBlur stdDeviation="0.488281"/>
<feComposite in2="hardAlpha" operator="arithmetic" k2="-1" k3="1"/>
<feColorMatrix type="matrix" values="0 0 0 0 0.847059 0 0 0 0 0.262745 0 0 0 0 0.501961 0 0 0 1 0"/>
<feBlend mode="normal" in2="shape" result="effect1_innerShadow_2829_201385"/>
</filter>
<filter id="filter2_f_2829_201385" x="-17.9104" y="-3.93359" width="92.8271" height="120.344" filterUnits="userSpaceOnUse" color-interpolation-filters="sRGB">
<feFlood flood-opacity="0" result="BackgroundImageFix"/>
<feBlend mode="normal" in="SourceGraphic" in2="BackgroundImageFix" result="shape"/>
<feGaussianBlur stdDeviation="11.5" result="effect1_foregroundBlur_2829_201385"/>
</filter>
<filter id="filter3_f_2829_201385" x="30.031" y="28.6992" width="112.356" height="103.605" filterUnits="userSpaceOnUse" color-interpolation-filters="sRGB">
<feFlood flood-opacity="0" result="BackgroundImageFix"/>
<feBlend mode="normal" in="SourceGraphic" in2="BackgroundImageFix" result="shape"/>
<feGaussianBlur stdDeviation="11.5" result="effect1_foregroundBlur_2829_201385"/>
</filter>
<filter id="filter4_f_2829_201385" x="45.583" y="-6.21094" width="68.5339" height="79.8359" filterUnits="userSpaceOnUse" color-interpolation-filters="sRGB">
<feFlood flood-opacity="0" result="BackgroundImageFix"/>
<feBlend mode="normal" in="SourceGraphic" in2="BackgroundImageFix" result="shape"/>
<feGaussianBlur stdDeviation="5.25" result="effect1_foregroundBlur_2829_201385"/>
</filter>
<filter id="filter5_f_2829_201385" x="-19.5422" y="-11.8867" width="132.452" height="138.41" filterUnits="userSpaceOnUse" color-interpolation-filters="sRGB">
<feFlood flood-opacity="0" result="BackgroundImageFix"/>
<feBlend mode="normal" in="SourceGraphic" in2="BackgroundImageFix" result="shape"/>
<feGaussianBlur stdDeviation="11.2305" result="effect1_foregroundBlur_2829_201385"/>
</filter>
<filter id="filter6_f_2829_201385" x="6.76636" y="47.0742" width="104.467" height="55.3008" filterUnits="userSpaceOnUse" color-interpolation-filters="sRGB">
<feFlood flood-opacity="0" result="BackgroundImageFix"/>
<feBlend mode="normal" in="SourceGraphic" in2="BackgroundImageFix" result="shape"/>
<feGaussianBlur stdDeviation="4.375" result="effect1_foregroundBlur_2829_201385"/>
</filter>
<filter id="filter7_f_2829_201385" x="22.1797" y="0.386719" width="72.7617" height="50.8867" filterUnits="userSpaceOnUse" color-interpolation-filters="sRGB">
<feFlood flood-opacity="0" result="BackgroundImageFix"/>
<feBlend mode="normal" in="SourceGraphic" in2="BackgroundImageFix" result="shape"/>
<feGaussianBlur stdDeviation="1.125" result="effect1_foregroundBlur_2829_201385"/>
</filter>
<filter id="filter8_f_2829_201385" x="74.7227" y="51.793" width="33.8311" height="46.4922" filterUnits="userSpaceOnUse" color-interpolation-filters="sRGB">
<feFlood flood-opacity="0" result="BackgroundImageFix"/>
<feBlend mode="normal" in="SourceGraphic" in2="BackgroundImageFix" result="shape"/>
<feGaussianBlur stdDeviation="0.976562" result="effect1_foregroundBlur_2829_201385"/>
</filter>
<filter id="filter9_f_2829_201385" x="10.6602" y="52.2852" width="33.4297" height="45.0547" filterUnits="userSpaceOnUse" color-interpolation-filters="sRGB">
<feFlood flood-opacity="0" result="BackgroundImageFix"/>
<feBlend mode="normal" in="SourceGraphic" in2="BackgroundImageFix" result="shape"/>
<feGaussianBlur stdDeviation="0.732422" result="effect1_foregroundBlur_2829_201385"/>
</filter>
<radialGradient id="paint0_radial_2829_201385" cx="0" cy="0" r="1" gradientUnits="userSpaceOnUse" gradientTransform="translate(59 50) rotate(90) scale(58.5449 52.9126)">
<stop offset="0.82837" stop-color="#FC5EBA"/>
<stop offset="0.975373" stop-color="#FFD3F6"/>
</radialGradient>
<radialGradient id="paint1_radial_2829_201385" cx="0" cy="0" r="1" gradientUnits="userSpaceOnUse" gradientTransform="translate(58.5884 -3.44625) rotate(90.0304) scale(52.4697 77.2133)">
<stop offset="0.744132" stop-color="#FEAAFF" stop-opacity="0"/>
<stop offset="0.937186" stop-color="#FEC6FF"/>
</radialGradient>
<radialGradient id="paint2_radial_2829_201385" cx="0" cy="0" r="1" gradientUnits="userSpaceOnUse" gradientTransform="translate(105.722 54.9819) rotate(115.77) scale(32.4065 22.582)">
<stop stop-color="white" stop-opacity="0"/>
<stop offset="1" stop-color="#FFF8FE"/>
</radialGradient>
<linearGradient id="paint3_linear_2829_201385" x1="15.2341" y1="56.4716" x2="39.1018" y2="95.0891" gradientUnits="userSpaceOnUse">
<stop stop-color="#FEAAFF" stop-opacity="0"/>
<stop offset="0.415" stop-color="#FEAAFF"/>
</linearGradient>
<linearGradient id="paint4_linear_2829_201385" x1="33.7032" y1="37.9572" x2="38.6061" y2="53.5874" gradientUnits="userSpaceOnUse">
<stop offset="0.20054" stop-color="white"/>
<stop offset="0.64856" stop-color="#F2E7F5"/>
</linearGradient>
<linearGradient id="paint5_linear_2829_201385" x1="71.5153" y1="24.3361" x2="74.94" y2="46.6293" gradientUnits="userSpaceOnUse">
<stop offset="0.20054" stop-color="white"/>
<stop offset="0.64856" stop-color="#F2E7F5"/>
</linearGradient>
<clipPath id="clip0_2829_201385">
<rect width="100" height="100" fill="white" transform="translate(9)"/>
</clipPath>
</defs>
</svg>
